# xmcd
#
# Track frame offsets: 
#        150
#        10409
#        24429
#        34700
#        38724
#        46304
#        64171
#        76675
#        87831
#        91770
#        105272
#        118492
#        125080
#        141170
#        146528
#        333401
#        344030
#
# Disc length: 4587 seconds
#
# Revision: 1
# Processed by: cddbd v1.5.2PL0 Copyright (c) Steve Scherf et al.
# Submitted via: ExactAudioCopyFreeDBPlugin 1.0
#
DISCID=e711e911
DTITLE=Camille - Le Fil
DYEAR=2005
DGENRE=Pop
TTITLE0=La Jeune Fille Aux Cheveux Blancs
TTITLE1=Ta Douleur
TTITLE2=Assise
TTITLE3=Janine 1
TTITLE4=Vous
TTITLE5=Baby Carni Bird
TTITLE6=Pour Que L'amour Me Quitte
TTITLE7=Senza
TTITLE8=Janine 2
TTITLE9=Vertige
TTITLE10=Au Port
TTITLE11=Janine 3
TTITLE12=Pale Septembre
TTITLE13=La Rue De Menilmontant
TTITLE14=Quand Je Marche (Nouvelle Version)
TTITLE15=Data Track
TTITLE16=?
EXTD=YEAR: 2005
EXTT0=
EXTT1=
EXTT2=
EXTT3=
EXTT4=
EXTT5=
EXTT6=
EXTT7=
EXTT8=
EXTT9=
EXTT10=
EXTT11=
EXTT12=
EXTT13=
EXTT14=
EXTT15=
EXTT16=
PLAYORDER=
